<svg version="1.2" xmlns="http://www.w3.org/2000/svg" viewBox="0 0 80 69" width="80" height="69"><style>.a{opacity:.7;fill:none;stroke:#fff;stroke-width:2}.b{opacity:.7;fill:#fff}</style><path class="a" d="m19 19.1c9.4-14.4 28.5-18.4 42.9-9.1 14.4 9.4 18.4 28.5 9.1 42.9-9.4 14.4-28.5 18.4-42.9 9.1-14.4-9.4-18.4-28.5-9.1-42.9z"/><path class="b" d="m57.5 33.4c2 1.2 2 4 0 5.2l-16.5 9.5c-2 1.2-4.5-0.3-4.5-2.6v-19c0-2.3 2.5-3.8 4.5-2.6z"/><path fill-rule="evenodd" class="b" d="m94.8 43v-14.5h1.7v12.9h6.8v1.6zm11 0v-10.9h1.7v10.9zm0.8-12.7q-0.5 0-0.8-0.4-0.4-0.3-0.4-0.8 0-0.4 0.4-0.8 0.3-0.3 0.8-0.3 0.5 0 0.9 0.3 0.3 0.4 0.3 0.8 0 0.5-0.3 0.8-0.4 0.4-0.9 0.4zm12.8 1.8l-4 10.9h-1.7l-4-10.9h1.8l3 8.7h0.1l3-8.7zm6.4 11.1q-1.6 0-2.7-0.7-1.1-0.7-1.7-1.9-0.7-1.3-0.7-3 0-1.6 0.7-2.9 0.6-1.3 1.7-2 1.1-0.8 2.6-0.8 0.8 0 1.6 0.3 0.9 0.3 1.6 1 0.6 0.6 1 1.6 0.4 1.1 0.4 2.6v0.7h-7.9q0.1 1.1 0.4 1.9 0.5 0.8 1.2 1.3 0.8 0.4 1.8 0.4 0.7 0 1.2-0.2 0.6-0.2 0.9-0.5 0.4-0.4 0.7-1l1.6 0.5q-0.3 0.8-0.9 1.4-0.6 0.6-1.5 1-0.9 0.3-2 0.3zm-3.4-5.1q0-0.1 0-0.2v-1q0-0.1 0-0.2h-0.5v1.4zm6.3-1.4q0-1-0.4-1.7-0.4-0.7-1.1-1.1-0.6-0.4-1.5-0.4-1 0-1.8 0.5-0.7 0.4-1.1 1.2-0.3 0.7-0.4 1.5zm14.6 6.3h-4.5v-14.5h4.7q2.1 0 3.7 0.8 1.5 0.9 2.3 2.5 0.8 1.6 0.8 3.9 0 2.3-0.8 3.9-0.9 1.6-2.4 2.5-1.6 0.9-3.8 0.9zm-2.7-1.6h2.6q1.8 0 3-0.7 1.2-0.7 1.8-1.9 0.6-1.3 0.6-3.1 0-1.8-0.6-3-0.6-1.3-1.7-2-1.2-0.7-2.9-0.7h-2.8zm17 1.8q-1.6 0-2.8-0.7-1.1-0.7-1.7-1.9-0.6-1.3-0.6-3 0-1.7 0.6-2.9 0.6-1.3 1.7-2 1.1-0.8 2.6-0.8 0.8 0 1.7 0.3 0.8 0.3 1.5 0.9 0.7 0.7 1.1 1.7 0.4 1.1 0.4 2.6v0.7h-7.9q0 1.1 0.4 1.9 0.4 0.8 1.2 1.3 0.8 0.4 1.8 0.4 0.6 0 1.2-0.2 0.5-0.2 0.9-0.6 0.4-0.3 0.6-0.9l1.6 0.5q-0.2 0.8-0.8 1.4-0.7 0.6-1.5 1-0.9 0.3-2 0.3zm-3.4-5.1q0-0.1 0-0.2v-1q0-0.1 0-0.3h-0.5v1.5zm6.2-1.5q0-0.9-0.4-1.6-0.3-0.7-1-1.1-0.7-0.5-1.6-0.5-1 0-1.7 0.5-0.7 0.5-1.1 1.3-0.4 0.7-0.4 1.4zm4.2 6.4v-10.9h1.7v1.7h0.1q0.3-0.9 1.1-1.4 0.8-0.5 1.8-0.5 1.1 0 1.8 0.5 0.7 0.5 1.1 1.4h0.2q0.4-0.9 1.2-1.4 0.9-0.5 2-0.5 1.5 0 2.4 0.9 1 1 1 2.9v7.3h-1.7v-7.3q0-1.2-0.7-1.7-0.6-0.6-1.5-0.6-1.2 0-1.8 0.7-0.7 0.7-0.7 1.8v7.1h-1.7v-7.5q0-0.9-0.6-1.5-0.6-0.6-1.5-0.6-0.7 0-1.2 0.4-0.6 0.3-0.9 0.9-0.4 0.7-0.4 1.5v6.8zm21.8 0.2q-1.5 0-2.6-0.7-1.1-0.7-1.7-2-0.6-1.2-0.6-2.9 0-1.7 0.6-3 0.6-1.3 1.7-2 1.1-0.7 2.6-0.7 1.5 0 2.6 0.7 1.1 0.7 1.7 2 0.7 1.3 0.7 3 0 1.7-0.7 2.9-0.6 1.3-1.7 2-1.1 0.7-2.6 0.7zm0-1.5q1.1 0 1.9-0.6 0.7-0.5 1-1.5 0.4-0.9 0.4-2 0-1.1-0.4-2.1-0.3-0.9-1-1.5-0.8-0.6-1.9-0.6-1.1 0-1.8 0.6-0.7 0.6-1.1 1.5-0.3 1-0.3 2.1 0 1.1 0.3 2 0.4 1 1.1 1.5 0.7 0.6 1.8 0.6zm8.7 1.4q-0.5 0-0.9-0.4-0.3-0.4-0.3-0.9 0-0.5 0.3-0.9 0.4-0.4 0.9-0.4 0.6 0 0.9 0.4 0.4 0.4 0.4 0.9 0 0.4-0.2 0.7-0.1 0.2-0.4 0.4-0.3 0.2-0.7 0.2zm5.6 0q-0.6 0-0.9-0.4-0.4-0.4-0.4-0.9 0-0.5 0.4-0.9 0.3-0.4 0.9-0.4 0.5 0 0.9 0.4 0.3 0.4 0.3 0.9 0 0.4-0.1 0.7-0.2 0.2-0.5 0.4-0.3 0.2-0.6 0.2zm5.5 0q-0.6 0-0.9-0.4-0.4-0.4-0.4-0.9 0-0.5 0.4-0.9 0.3-0.4 0.9-0.4 0.5 0 0.9 0.4 0.3 0.4 0.3 0.9 0 0.4-0.1 0.7-0.2 0.2-0.5 0.4-0.3 0.2-0.6 0.2z"/></svg>